#!OML:ASF C:\Vicon Data\Big\jianyuan-13\jianyuan\Session 1\Capture.male.ASF
:FULLY-SPECIFIED
:DEGREES
181
root -6.061221 17.466265 -12.117276 8.405976 8.316798 3.136730
lowerback -10.616908 -0.696286 -5.592028 
upperback 1.999962 -0.080524 -1.127195 
thorax 8.120081 -0.274211 1.939180 
lowerneck -6.505482 -2.165673 2.257990 
upperneck -0.277480 -3.014585 -2.318470 
head 0.934333 -1.543513 -1.180660 
rclavicle 0.000000 0.000000 
rhumerus -43.286376 -16.421080 -79.530278 
rradius 28.680520 
rwrist 29.687023 
rhand -17.092221 -16.540419 
rfingers 0.000000 
rthumb 9.146322 -46.322081 
lclavicle 0.000000 0.000000 
lhumerus -30.452703 32.616106 76.503883 
lradius 24.926308 
lwrist -58.452696 
lhand -20.994253 1.370790 
lfingers 0.000000 
lthumb 5.379860 31.282492 
rfemur -25.921593 -9.336569 16.869344 
rtibia 57.572419 
rfoot -15.531708 -9.859764 
rtoes -27.782437 
lfemur -16.201527 -3.618145 -26.828702 
ltibia 22.294172 
lfoot -12.455406 2.017157 
ltoes -25.985757 
182
root -6.049027 17.459403 -12.078831 8.362171 8.344787 3.088054
lowerback -10.559698 -0.742865 -5.634795 
upperback 2.038841 -0.145262 -1.053137 
thorax 8.134867 -0.310750 2.030572 
lowerneck -6.530233 -2.169376 2.212335 
upperneck -0.284463 -3.016798 -2.312201 
head 0.936925 -1.544700 -1.171274 
rclavicle 0.000000 0.000000 
rhumerus -43.443589 -16.569845 -79.229047 
rradius 28.561919 
rwrist 29.924631 
rhand -17.062584 -16.514201 
rfingers 0.000000 
rthumb 9.174956 -46.294644 
lclavicle 0.000000 0.000000 
lhumerus -29.725341 31.950071 77.326472 
lradius 25.188586 
lwrist -57.577172 
lhand -20.833387 1.248628 
lfingers 0.000000 
lthumb 5.535208 31.156341 
rfemur -26.418355 -8.892725 16.879853 
rtibia 57.242406 
rfoot -15.775136 -9.698833 
rtoes -27.673736 
lfemur -16.104816 -3.656788 -26.809525 
ltibia 22.493650 
lfoot -12.515719 1.985154 
ltoes -27.224880 
183
root -6.037715 17.452786 -12.041556 8.323184 8.353001 3.065139
lowerback -10.513109 -0.794352 -5.666332 
upperback 2.084023 -0.213661 -1.022164 
thorax 8.162781 -0.347816 2.069091 
lowerneck -6.528474 -2.167046 2.210219 
upperneck -0.318498 -3.013611 -2.337581 
head 0.925693 -1.543568 -1.178318 
rclavicle 0.000000 0.000000 
rhumerus -43.596320 -16.601659 -79.069787 
rradius 28.525037 
rwrist 30.109483 
rhand -17.072424 -16.582198 
rfingers 0.000000 
rthumb 9.165457 -46.363014 
lclavicle 0.000000 0.000000 
lhumerus -29.013849 31.253966 78.055129 
lradius 25.425937 
lwrist -56.962125 
lhand -20.831577 1.221000 
lfingers 0.000000 
lthumb 5.536991 31.128683 
rfemur -26.918871 -8.389754 16.871750 
rtibia 56.888962 
rfoot -16.061372 -9.686495 
rtoes -27.453052 
lfemur -16.005278 -3.619622 -26.818610 
ltibia 22.663350 
lfoot -12.765700 1.835900 
ltoes -26.203885 
184
root -6.025585 17.445287 -12.002686 8.231146 8.392815 3.083590
lowerback -10.431564 -0.828895 -5.728322 
upperback 2.166470 -0.254237 -1.017995 
thorax 8.209111 -0.373274 2.100933 
lowerneck -6.514374 -2.155208 2.271032 
upperneck -0.421313 -3.003495 -2.338933 
head 0.890331 -1.538564 -1.187186 
rclavicle 0.000000 0.000000 
rhumerus -43.716953 -16.887627 -78.821664 
rradius 28.403889 
rwrist 30.332854 
rhand -17.090405 -16.513256 
rfingers 0.000000 
rthumb 9.148100 -46.294878 
lclavicle 0.000000 0.000000 
lhumerus -28.245712 30.422127 78.811392 
lradius 25.655582 
lwrist -56.187582 
lhand -20.910516 1.217008 
lfingers 0.000000 
lthumb 5.460763 31.126609 
rfemur -27.338427 -7.976265 16.794398 
rtibia 56.522821 
rfoot -16.340521 -9.679951 
rtoes -27.931839 
lfemur -15.805734 -3.621226 -26.871311 
ltibia 22.791714 
lfoot -12.918501 1.709754 
ltoes -26.233721 
185
root -6.014197 17.438426 -11.966228 8.122638 8.419765 3.163659
lowerback -10.426007 -0.862579 -5.877019 
upperback 2.347286 -0.271386 -1.023381 
thorax 8.405701 -0.397046 2.173963 
lowerneck -6.576142 -2.166185 2.296736 
upperneck -0.600308 -3.024623 -2.266535 
head 0.844399 -1.548560 -1.167846 
rclavicle 0.000000 0.000000 
rhumerus -43.681215 -17.073406 -78.698779 
rradius 28.344099 
rwrist 30.399338 
rhand -17.083292 -16.508010 
rfingers 0.000000 
rthumb 9.154961 -46.289286 
lclavicle 0.000000 0.000000 
lhumerus -27.296782 29.729210 79.596150 
lradius 25.844372 
lwrist -55.499025 
lhand -20.851347 1.080825 
lfingers 0.000000 
lthumb 5.517869 30.988959 
rfemur -27.727016 -7.522438 16.634144 
rtibia 56.113864 
rfoot -16.553936 -9.674073 
rtoes -27.795268 
lfemur -15.573695 -3.659478 -26.985292 
ltibia 22.891851 
lfoot -13.067112 1.624036 
ltoes -26.164460 
186
root -6.003438 17.434365 -11.928499 8.003742 8.417370 3.227565
lowerback -10.300923 -0.905324 -6.008455 
upperback 2.427237 -0.317101 -1.018421 
thorax 8.425951 -0.428026 2.244983 
lowerneck -6.538824 -2.176296 2.193358 
upperneck -0.671237 -3.033092 -2.087773 
head 0.818655 -1.549932 -1.092400 
rclavicle 0.000000 0.000000 
rhumerus -43.756184 -17.287647 -78.463981 
rradius 28.150706 
rwrist 30.593861 
rhand -17.086163 -16.460319 
rfingers 0.000000 
rthumb 9.152199 -46.241786 
lclavicle 0.000000 0.000000 
lhumerus -26.605303 29.039871 80.261824 
lradius 26.118781 
lwrist -54.443967 
lhand -20.810978 1.047724 
lfingers 0.000000 
lthumb 5.556845 30.954891 
rfemur -28.086821 -7.022090 16.496593 
rtibia 55.654137 
rfoot -16.834301 -9.851845 
rtoes -27.687273 
lfemur -15.322006 -3.657655 -27.081647 
ltibia 22.979885 
lfoot -13.317021 1.592949 
ltoes -26.610121 
187
root -5.991782 17.430312 -11.887030 7.907619 8.450050 3.123760
lowerback -10.248986 -0.931208 -5.934663 
upperback 2.493857 -0.365275 -0.987324 
thorax 8.471481 -0.451034 2.227923 
lowerneck -6.497170 -2.141224 2.189798 
upperneck -0.738861 -2.986257 -2.080339 
head 0.791482 -1.526326 -1.086652 
rclavicle 0.000000 0.000000 
rhumerus -43.859381 -17.391909 -78.308839 
rradius 28.066329 
rwrist 30.665548 
rhand -17.052258 -16.413869 
rfingers 0.000000 
rthumb 9.184926 -46.193828 
lclavicle 0.000000 0.000000 
lhumerus -25.953032 28.089706 80.901240 
lradius 26.403709 
lwrist -53.612465 
lhand -20.857991 0.986985 
lfingers 0.000000 
lthumb 5.511451 30.895332 
rfemur -28.445027 -6.501275 16.533899 
rtibia 55.151671 
rfoot -17.127936 -9.815218 
rtoes -28.099130 
lfemur -15.119187 -3.575496 -27.005490 
ltibia 23.074542 
lfoot -13.383180 1.341068 
ltoes -26.324767 
188
root -5.980327 17.424519 -11.847483 7.791103 8.469504 3.080060
lowerback -10.129700 -0.985547 -5.936247 
upperback 2.546303 -0.448275 -0.940538 
thorax 8.466821 -0.493677 2.264512 
lowerneck -6.477235 -2.134043 2.160596 
upperneck -0.769266 -2.974453 -2.094146 
head 0.778985 -1.520570 -1.084958 
rclavicle 0.000000 0.000000 
rhumerus -43.965581 -17.532368 -78.096170 
rradius 27.924709 
rwrist 30.819489 
rhand -17.064481 -16.342502 
rfingers 0.000000 
rthumb 9.173110 -46.123001 
lclavicle 0.000000 0.000000 
lhumerus -25.397111 27.499027 81.450823 
lradius 26.665365 
lwrist -53.052732 
lhand -20.882003 0.979109 
lfingers 0.000000 
lthumb 5.488254 30.888075 
rfemur -28.768357 -6.006545 16.489442 
rtibia 54.636797 
rfoot -17.354956 -9.810450 
rtoes -27.427817 
lfemur -14.890035 -3.587941 -26.995514 
ltibia 23.178140 
lfoot -13.601027 1.307142 
ltoes -26.394660 
